<svg width="1420" height="343" viewBox="0 0 1420 343" fill="none" xmlns="http://www.w3.org/2000/svg">
<path d="M570.5 343L628 0H672.5V343H570.5Z" fill="url(#paint0_linear_27_843)"/>
<path d="M743 343C746.2 343 729.667 114.333 721 0H787.5C807.333 114.333 846.6 343 845 343H743Z" fill="url(#paint1_linear_27_843)"/>
<path d="M845 0L929 343H1061.5L929 0H845Z" fill="url(#paint2_linear_27_843)"/>
<path d="M1192 343L1017.5 0H1161L1420 343H1192Z" fill="url(#paint3_linear_27_843)"/>
<path d="M471 343L559.5 3.8757L486.5 0L354 343H471Z" fill="url(#paint4_linear_27_843)"/>
<path d="M223.5 343L400.5 3.8757H254.5L0 343H223.5Z" fill="url(#paint5_linear_27_843)"/>
<defs>
<linearGradient id="paint0_linear_27_843" x1="710" y1="374" x2="710" y2="-2.78652e-06" gradientUnits="userSpaceOnUse">
<stop stop-color="#FCB310"/>
<stop offset="1" stop-color="#DD3131" stop-opacity="0"/>
</linearGradient>
<linearGradient id="paint1_linear_27_843" x1="710" y1="374" x2="710" y2="-2.78652e-06" gradientUnits="userSpaceOnUse">
<stop stop-color="#FCB310"/>
<stop offset="1" stop-color="#DD3131" stop-opacity="0"/>
</linearGradient>
<linearGradient id="paint2_linear_27_843" x1="710" y1="374" x2="710" y2="-2.78652e-06" gradientUnits="userSpaceOnUse">
<stop stop-color="#FCB310"/>
<stop offset="1" stop-color="#DD3131" stop-opacity="0"/>
</linearGradient>
<linearGradient id="paint3_linear_27_843" x1="710" y1="374" x2="710" y2="-2.78652e-06" gradientUnits="userSpaceOnUse">
<stop stop-color="#FCB310"/>
<stop offset="1" stop-color="#DD3131" stop-opacity="0"/>
</linearGradient>
<linearGradient id="paint4_linear_27_843" x1="710" y1="374" x2="710" y2="-2.78652e-06" gradientUnits="userSpaceOnUse">
<stop stop-color="#FCB310"/>
<stop offset="1" stop-color="#DD3131" stop-opacity="0"/>
</linearGradient>
<linearGradient id="paint5_linear_27_843" x1="710" y1="374" x2="710" y2="-2.78652e-06" gradientUnits="userSpaceOnUse">
<stop stop-color="#FCB310"/>
<stop offset="1" stop-color="#DD3131" stop-opacity="0"/>
</linearGradient>
</defs>
</svg>
