<svg width="1420" height="477" viewBox="0 0 1420 477" fill="none" xmlns="http://www.w3.org/2000/svg">
<path d="M570.5 0L628 477H672.5V0H570.5Z" fill="url(#paint0_linear_27_842)"/>
<path d="M743 0C746.2 0 729.667 318 721 477H787.5C807.333 318 846.6 0 845 0H743Z" fill="url(#paint1_linear_27_842)"/>
<path d="M845 477L929 0H1061.5L929 477H845Z" fill="url(#paint2_linear_27_842)"/>
<path d="M1192 0L1017.5 477H1161L1420 0H1192Z" fill="url(#paint3_linear_27_842)"/>
<path d="M471 0L559.5 471.61L486.5 477L354 0H471Z" fill="url(#paint4_linear_27_842)"/>
<path d="M223.5 0L400.5 471.61H254.5L0 0H223.5Z" fill="url(#paint5_linear_27_842)"/>
<defs>
<linearGradient id="paint0_linear_27_842" x1="710" y1="205.5" x2="710" y2="477" gradientUnits="userSpaceOnUse">
<stop stop-color="#FCB310" stop-opacity="0"/>
<stop offset="0.321667" stop-color="#FCB310"/>
<stop offset="1" stop-color="#EFA90B" stop-opacity="0"/>
</linearGradient>
<linearGradient id="paint1_linear_27_842" x1="710" y1="205.5" x2="710" y2="477" gradientUnits="userSpaceOnUse">
<stop stop-color="#FCB310" stop-opacity="0"/>
<stop offset="0.321667" stop-color="#FCB310"/>
<stop offset="1" stop-color="#EFA90B" stop-opacity="0"/>
</linearGradient>
<linearGradient id="paint2_linear_27_842" x1="710" y1="205.5" x2="710" y2="477" gradientUnits="userSpaceOnUse">
<stop stop-color="#FCB310" stop-opacity="0"/>
<stop offset="0.321667" stop-color="#FCB310"/>
<stop offset="1" stop-color="#EFA90B" stop-opacity="0"/>
</linearGradient>
<linearGradient id="paint3_linear_27_842" x1="710" y1="205.5" x2="710" y2="477" gradientUnits="userSpaceOnUse">
<stop stop-color="#FCB310" stop-opacity="0"/>
<stop offset="0.321667" stop-color="#FCB310"/>
<stop offset="1" stop-color="#EFA90B" stop-opacity="0"/>
</linearGradient>
<linearGradient id="paint4_linear_27_842" x1="710" y1="205.5" x2="710" y2="477" gradientUnits="userSpaceOnUse">
<stop stop-color="#FCB310" stop-opacity="0"/>
<stop offset="0.321667" stop-color="#FCB310"/>
<stop offset="1" stop-color="#EFA90B" stop-opacity="0"/>
</linearGradient>
<linearGradient id="paint5_linear_27_842" x1="710" y1="205.5" x2="710" y2="477" gradientUnits="userSpaceOnUse">
<stop stop-color="#FCB310" stop-opacity="0"/>
<stop offset="0.321667" stop-color="#FCB310"/>
<stop offset="1" stop-color="#EFA90B" stop-opacity="0"/>
</linearGradient>
</defs>
</svg>
